<svg xmlns="http://www.w3.org/2000/svg" viewBox="0 0 200 193.18"><defs><style>.cls-1{fill:#fff;}.cls-2{fill:#464646;}.cls-3{fill:#7a0d10;}.cls-4{fill:#704522;}.cls-5{fill:#494949;}.cls-6{fill:#484848;}.cls-7{fill:#654218;}.cls-8{fill:#790b0e;}</style></defs><title>Asset 2</title><g id="Layer_2" data-name="Layer 2"><g id="Layer_2-2" data-name="Layer 2"><path class="cls-1" d="M17.85,56.43v80.33a14,14,0,0,0,7,12.12L94.28,189a14,14,0,0,0,14,0l69.43-40.14a14,14,0,0,0,7-12.12V56.43a14,14,0,0,0-7-12.12L108.29,4.16a14,14,0,0,0-14,0L24.84,44.31A14,14,0,0,0,17.85,56.43Z"/><path class="cls-2" d="M101.28,2.39a14.72,14.72,0,0,1,7.38,2l68.7,39.73a14.73,14.73,0,0,1,7.36,12.75v79.48a14.75,14.75,0,0,1-7.36,12.76l-68.7,39.72a14.73,14.73,0,0,1-14.75,0l-68.7-39.72a14.73,14.73,0,0,1-7.36-12.76V56.85A14.71,14.71,0,0,1,25.21,44.1L93.91,4.37a14.71,14.71,0,0,1,7.37-2m0-2.39a17.2,17.2,0,0,0-8.57,2.3L24,42a17.17,17.17,0,0,0-8.55,14.83v79.48A17.16,17.16,0,0,0,24,151.16l68.7,39.72a17.13,17.13,0,0,0,17.15,0l68.7-39.72a17.18,17.18,0,0,0,8.55-14.83V56.85A17.2,17.2,0,0,0,178.56,42L109.86,2.3A17.23,17.23,0,0,0,101.28,0Z"/><path class="cls-2" d="M101.28,6.87a14.72,14.72,0,0,1,7.38,2l64.83,37.48a14.76,14.76,0,0,1,7.36,12.76v75a14.73,14.73,0,0,1-7.36,12.75l-64.83,37.49a14.73,14.73,0,0,1-14.75,0L29.08,146.85a14.71,14.71,0,0,1-7.36-12.75v-75a14.74,14.74,0,0,1,7.36-12.76L93.91,8.85a14.71,14.71,0,0,1,7.37-2m0-1.84A16.6,16.6,0,0,0,93,7.25L28.15,44.74a16.62,16.62,0,0,0-8.27,14.35v75a16.64,16.64,0,0,0,8.27,14.35L93,185.93a16.54,16.54,0,0,0,16.59,0l64.83-37.48a16.62,16.62,0,0,0,8.28-14.35v-75a16.61,16.61,0,0,0-8.28-14.35L109.58,7.25A16.67,16.67,0,0,0,101.28,5Z"/><path class="cls-2" d="M182.7,77.54l-2.41,0a32.76,32.76,0,0,1-6.69-5.09,28.53,28.53,0,0,0-4.32-4,35.69,35.69,0,0,1-9.51-10.12,19.13,19.13,0,0,0-1.66-2,1,1,0,0,0-1.53-.19,22,22,0,0,0-1.83,1.39c-2.38,2-4.8,2.07-7.19,0a53.29,53.29,0,0,1-4.73-5A21.5,21.5,0,0,0,139.2,49c-.58-.4-1.17-.78-1.84-.23a1.5,1.5,0,0,0-.27,2,9.5,9.5,0,0,0,.55,1.05,6.83,6.83,0,0,1,1.09,4.38,10.62,10.62,0,0,0,4.67,10.06c1.7,1.26,3.38,2.53,5.19,3.63a5.63,5.63,0,0,1,1,.7,1.11,1.11,0,0,1-1.17,1.85,6.21,6.21,0,0,1-.81-.42,49.87,49.87,0,0,1-8.83-6.88c-3.55-3.38-7.17-6.69-10.59-10.21a22.11,22.11,0,0,1-3.65-5.38,6,6,0,0,0-3.21-3.13,1.81,1.81,0,0,0-2.16.49,1.69,1.69,0,0,0-.35,2.17,5.43,5.43,0,0,1,.18,5.48,6.5,6.5,0,0,0-.56,4,4.11,4.11,0,0,1-.29,2.16,1.57,1.57,0,0,1-2.47.78,4.91,4.91,0,0,1-1.58-2.1c-1.39-2.87-2.5-5.9-4.44-8.44-3.8-5-6.89-10.44-10.91-15.25a7.3,7.3,0,0,0-2.13-1.86.93.93,0,0,0-1.41.34,9.22,9.22,0,0,0-1.47,4.39,2.85,2.85,0,0,0,.9,2.14l1.63,1.62c1.61,1.65,1.76,2.84.52,4.75-.84,1.28-1.74,2.52-2.66,3.74-.48.62-.68,1,.3,1.33a8.64,8.64,0,0,1,1.72.86c1.81,1.08,2,2.66.35,4a14,14,0,0,1-6.08,2.65,75.15,75.15,0,0,1-8.47,1.09,12.66,12.66,0,0,0-6.76,2.79c-2.29,1.9-4.63,3.73-6.9,5.65a9,9,0,0,1-6,2.27c-1,0-2,.1-2.93.21a5.61,5.61,0,0,0-3.94,2.1,5.44,5.44,0,0,1-1.89,1.58,1.28,1.28,0,0,1-1.66-.29,1.19,1.19,0,0,1,.06-1.67c1.69-2.11,3.65-4,5.5-5.93,5.16-5.46,10.45-10.78,16-15.88,1.86-1.71,1.81-2,.06-3.82a53.26,53.26,0,0,0-4.89-4.73c-1.49-1.22-2.28-1.18-3.43.37A36.24,36.24,0,0,0,58.3,59.25a8.53,8.53,0,0,1-1.17,3.44,2.43,2.43,0,0,1-3.9.69c-2.17-1.67-4.61-2.9-6.86-4.43a2,2,0,0,0-2.53.19,28,28,0,0,0-3.3,3.32c-2.61,2.91-5.71,5.29-8.45,8.05a51.15,51.15,0,0,1-8.56,7H21.47V76a30.66,30.66,0,0,0,4.59-3.17c3.06-2.51,5.74-5.43,8.75-8A35,35,0,0,0,40.33,59,19.24,19.24,0,0,1,45,54.46a4,4,0,0,1,5-.08l1.31.85c1.07.68,1.67.62,2.47-.34a39.76,39.76,0,0,0,3-4l5-7.93A11.92,11.92,0,0,1,63.34,41c1.92-2,4.08-2,6.52,0,2.22,1.8,4.15,3.9,6.21,5.86,1,.94,1.36,1,2.28,0,2-2.21,3.66-4.74,5.52-7.1C86,37.12,87.8,34.28,90.3,32s5-2.42,7.62-.46a26.37,26.37,0,0,1,5.42,6.07c2,2.79,3.69,5.85,5.94,8.48a1.81,1.81,0,0,0,2.57.63,10.18,10.18,0,0,0,1.21-.66c1.22-.74,2.38-1.58,3.66-2.26,2.61-1.4,4.91-.86,7.1.92,1.7,1.38,2.61,3.29,3.65,5.12.71,1.24,1.16,1.3,2.14.25s1.66-2,2.56-2.89c2.3-2.34,4.91-2.63,7.73-.94a16.74,16.74,0,0,1,3.81,3.56,74.34,74.34,0,0,0,5.09,5.56c1.58,1.46,2.81,1.48,4.45.11a17.14,17.14,0,0,1,2.3-1.68,3,3,0,0,1,3.73.27,13.44,13.44,0,0,1,2.56,2.87c1.79,2.56,3.48,5.24,6,7.13a88.8,88.8,0,0,1,8.71,7.62,17.63,17.63,0,0,0,4.27,3C180.83,74.25,182.7,77.81,182.7,77.54Z"/><polygon class="cls-3" points="0 77.58 200 77.58 190.94 93.91 200 109.65 0 109.65 9.73 93.91 0 77.58"/><path class="cls-1" d="M19.4,104.27a5.34,5.34,0,0,1-1.21-3.77V89.86a5.34,5.34,0,0,1,1.21-3.77,4.56,4.56,0,0,1,3.53-1.32,4.56,4.56,0,0,1,3.53,1.32,5.34,5.34,0,0,1,1.21,3.77V91.6h-3V89.66c0-1.33-.54-2-1.64-2s-1.65.67-1.65,2v11.07c0,1.31.55,2,1.65,2s1.64-.66,1.64-2v-4H23.07V93.88h4.6v6.62a5.34,5.34,0,0,1-1.21,3.77,4.56,4.56,0,0,1-3.53,1.32A4.56,4.56,0,0,1,19.4,104.27Z"/><path class="cls-1" d="M29.72,85.06h4.72A4.85,4.85,0,0,1,38,86.2a4.81,4.81,0,0,1,1.13,3.52V91q0,3.15-2.08,4V95a2.48,2.48,0,0,1,1.63,1.41,7.14,7.14,0,0,1,.48,2.87v3.55a13.29,13.29,0,0,0,.06,1.41,3.44,3.44,0,0,0,.29,1H36.29a4.42,4.42,0,0,1-.23-.92,13.51,13.51,0,0,1-.06-1.57v-3.7a3.1,3.1,0,0,0-.45-1.93A1.88,1.88,0,0,0,34,96.63H32.91v8.67H29.72Zm4.34,8.67a1.88,1.88,0,0,0,1.43-.49A2.28,2.28,0,0,0,36,91.6V90a2.58,2.58,0,0,0-.39-1.59A1.5,1.5,0,0,0,34.35,88H32.91v5.78Z"/><path class="cls-1" d="M43.84,85.06h4.3l3.3,20.24H48.26l-.58-4v.06H44.07l-.58,4h-3Zm3.47,13.53-1.42-10h-.06l-1.39,10Z"/><path class="cls-1" d="M53,85.06h4l3.1,12.12h.06V85.06H63V105.3H59.68L55.86,90.53h0V105.3H53Z"/><path class="cls-1" d="M65.32,85.06H68.5V105.3H65.32Z"/><path class="cls-1" d="M73.36,88H70V85.06h9.83V88H76.54V105.3H73.36Z"/><path class="cls-1" d="M81.4,85.06h8.67V88H84.58V93.3h4.36v2.89H84.58v6.22h5.49v2.89H81.4Z"/><path class="cls-1" d="M96.52,85.06h4.54l2,14.49h.06l2-14.49h4.54V105.3h-3V90h-.06l-2.31,15.32h-2.66L99.35,90h-.06V105.3H96.52Z"/><path class="cls-1" d="M113.09,104.26a5.3,5.3,0,0,1-1.25-3.76V89.86a5.3,5.3,0,0,1,1.25-3.76,5.5,5.5,0,0,1,7.17,0,5.3,5.3,0,0,1,1.24,3.76V100.5a5.3,5.3,0,0,1-1.24,3.76,5.5,5.5,0,0,1-7.17,0Zm5.23-3.56v-11c0-1.33-.55-2-1.65-2s-1.64.67-1.64,2v11c0,1.33.54,2,1.64,2S118.32,102,118.32,100.7Z"/><path class="cls-1" d="M124.74,104.27a5.34,5.34,0,0,1-1.21-3.77V85.06h3.18v15.67a2.22,2.22,0,0,0,.42,1.51,1.8,1.8,0,0,0,2.4,0,2.22,2.22,0,0,0,.42-1.51V85.06H133V100.5a5.34,5.34,0,0,1-1.21,3.77,5.38,5.38,0,0,1-7.06,0Z"/><path class="cls-1" d="M135.27,85.06h4l3.09,12.12h.06V85.06h2.83V105.3H142l-3.81-14.77h-.06V105.3h-2.83Z"/><path class="cls-1" d="M150.1,88h-3.33V85.06h9.84V88h-3.33V105.3H150.1Z"/><path class="cls-1" d="M159.27,85.06h4.31l3.29,20.24h-3.18l-.58-4v.06H159.5l-.58,4H156Zm3.47,13.53-1.42-10h-.06l-1.39,10Z"/><path class="cls-1" d="M168.4,85.06h3.18V105.3H168.4Z"/><path class="cls-1" d="M174,85.06h4L181,97.18h.06V85.06h2.83V105.3h-3.27l-3.81-14.77h-.06V105.3H174Z"/><path class="cls-2" d="M145.06,117.18v13.36h-3.28v-5.42H137.5v5.42h-3.28V117.18h3.28v5.18h4.28v-5.18Z"/><path class="cls-2" d="M156.78,127.61a5.26,5.26,0,0,1-4.94,3.11,5.54,5.54,0,0,1-3-.8,5.42,5.42,0,0,1-2-2.31,8,8,0,0,1-.72-3.5v-.49a8,8,0,0,1,.72-3.51,5.46,5.46,0,0,1,9.91,0,8,8,0,0,1,.72,3.51v.49A8,8,0,0,1,156.78,127.61Zm-3.23-6.84a1.93,1.93,0,0,0-1.73-1q-2.31,0-2.31,3.81v.51a5.59,5.59,0,0,0,.58,2.83,1.91,1.91,0,0,0,1.75,1,1.88,1.88,0,0,0,1.71-1,5.53,5.53,0,0,0,.6-2.82v-.51A5.47,5.47,0,0,0,153.55,120.77Z"/><path class="cls-2" d="M168.87,127.61a5.26,5.26,0,0,1-4.94,3.11,5.54,5.54,0,0,1-3-.8,5.42,5.42,0,0,1-2-2.31,8,8,0,0,1-.72-3.5v-.49a8,8,0,0,1,.72-3.51,5.46,5.46,0,0,1,2-2.31,5.54,5.54,0,0,1,3-.8,5.29,5.29,0,0,1,5,3.11,8,8,0,0,1,.72,3.51v.49A8,8,0,0,1,168.87,127.61Zm-3.23-6.84a1.93,1.93,0,0,0-1.72-1q-2.32,0-2.32,3.81v.51a5.59,5.59,0,0,0,.58,2.83,1.91,1.91,0,0,0,1.75,1,1.88,1.88,0,0,0,1.71-1,5.53,5.53,0,0,0,.6-2.82v-.51A5.47,5.47,0,0,0,165.64,120.77Z"/><path class="cls-2" d="M179.26,127.77v2.77h-8.57V117.18H174v10.59Z"/><path class="cls-2" d="M45.79,117.18v13.36H42.51v-5.42H38.23v5.42H35V117.18h3.28v5.18h4.28v-5.18Z"/><path class="cls-2" d="M54.52,128.32H50.4l-.65,2.22H46.22l4.68-13.36H54l4.71,13.36H55.18Zm-.82-2.77-1.25-4.22-1.24,4.22Z"/><path class="cls-2" d="M69.66,130.39v.15H66.14L64,126H62.46v4.52H59.17V117.18h5.17a6.64,6.64,0,0,1,2.6.46,3.75,3.75,0,0,1,1.7,1.37,3.85,3.85,0,0,1,.61,2.21,4.54,4.54,0,0,1-.56,2.42,4.17,4.17,0,0,1-1.64,1.45Zm-7.2-7.15h1.88a1.64,1.64,0,0,0,1.21-.41A1.66,1.66,0,0,0,66,121.6a1.69,1.69,0,0,0-.42-1.22,1.59,1.59,0,0,0-1.2-.43H62.46Z"/><path class="cls-2" d="M80.78,120H77v10.59H73.67V120H69.94v-2.77H80.78Z"/><path class="cls-2" d="M84.93,120v2.41H89.7V125H84.93v2.75h5.65v2.77H81.65V117.18h9V120Z"/><path class="cls-2" d="M101.84,130.39v.15H98.32L96.16,126H94.64v4.52H91.35V117.18h5.17a6.64,6.64,0,0,1,2.6.46,3.75,3.75,0,0,1,1.7,1.37,3.85,3.85,0,0,1,.61,2.21,4.54,4.54,0,0,1-.56,2.42,4.2,4.2,0,0,1-1.65,1.45Zm-7.2-7.15h1.88a1.64,1.64,0,0,0,1.21-.41,2,2,0,0,0,0-2.45,1.59,1.59,0,0,0-1.2-.43H94.64Z"/><path class="cls-2" d="M113.32,124.16a4.8,4.8,0,0,1-1.55-1.38,3.32,3.32,0,0,1-.6-2,3.22,3.22,0,0,1,.64-2,4.17,4.17,0,0,1,1.8-1.32,7,7,0,0,1,2.58-.45,6,6,0,0,1,2.49.49,3.85,3.85,0,0,1,2.33,3.68h-3.27a1.43,1.43,0,0,0-.42-1.08,1.71,1.71,0,0,0-1.21-.4,2.25,2.25,0,0,0-.91.16,1.31,1.31,0,0,0-.57.41.89.89,0,0,0-.2.55,1,1,0,0,0,.56.86,8.88,8.88,0,0,0,1.72.76,8.35,8.35,0,0,1,3.21,1.78,3.64,3.64,0,0,1,1.08,2.71,3.51,3.51,0,0,1-.59,2.07,3.67,3.67,0,0,1-1.66,1.29,6.73,6.73,0,0,1-2.53.44,7.05,7.05,0,0,1-2.65-.49,4.55,4.55,0,0,1-2-1.54,4.33,4.33,0,0,1-.77-2.62h3.3a2.56,2.56,0,0,0,.23,1.17,1.3,1.3,0,0,0,.71.61,3.37,3.37,0,0,0,1.2.18,1.64,1.64,0,0,0,1.13-.32,1,1,0,0,0,.37-.77,1.3,1.3,0,0,0-.16-.67,1.7,1.7,0,0,0-.62-.53,9.07,9.07,0,0,0-1.38-.59A13.59,13.59,0,0,1,113.32,124.16Z"/><path class="cls-2" d="M33.91,126.41a5.63,5.63,0,0,1-1.06,2.3A4.32,4.32,0,0,1,31.11,130a5.8,5.8,0,0,1-2.24.42,5.41,5.41,0,0,1-3-.82,5.2,5.2,0,0,1-1.95-2.36,10.46,10.46,0,0,1,0-7.42,5.25,5.25,0,0,1,1.95-2.36,5.48,5.48,0,0,1,3-.82,5.87,5.87,0,0,1,2.21.4,4.29,4.29,0,0,1,1.71,1.2,4.9,4.9,0,0,1,1,2.09l-2.63,1.24a3,3,0,0,0-.79-1.73A2.08,2.08,0,0,0,29,119.4a2.26,2.26,0,0,0-1.42.46,2.91,2.91,0,0,0-.92,1.39,6.93,6.93,0,0,0-.32,2.3,7.55,7.55,0,0,0,.29,2.29,2.8,2.8,0,0,0,.9,1.4,2.36,2.36,0,0,0,1.49.46,2,2,0,0,0,1.42-.53,2.91,2.91,0,0,0,.79-1.65Z"/><path class="cls-2" d="M133,126.41a5.76,5.76,0,0,1-1.06,2.3,4.28,4.28,0,0,1-1.75,1.31,5.72,5.72,0,0,1-2.23.42,5.41,5.41,0,0,1-3-.82,5.2,5.2,0,0,1-2-2.36,10.46,10.46,0,0,1,0-7.42,5.25,5.25,0,0,1,2-2.36,5.48,5.48,0,0,1,3-.82,5.87,5.87,0,0,1,2.21.4,4.29,4.29,0,0,1,1.71,1.2,4.9,4.9,0,0,1,1,2.09l-2.63,1.24a3,3,0,0,0-.79-1.73,2.08,2.08,0,0,0-1.39-.46,2.24,2.24,0,0,0-1.42.46,2.91,2.91,0,0,0-.92,1.39,6.91,6.91,0,0,0-.33,2.3,7.53,7.53,0,0,0,.3,2.29,2.8,2.8,0,0,0,.9,1.4,2.36,2.36,0,0,0,1.49.46,2,2,0,0,0,1.42-.53,2.91,2.91,0,0,0,.79-1.65Z"/><path class="cls-4" d="M113.25,151.45a2.62,2.62,0,0,1-2,0,19.19,19.19,0,0,0,2.41-4.31,2.21,2.21,0,0,0-.58-2.43,11.66,11.66,0,0,0-4-2.5c-1.32-.55-2.68-1-4-1.53-.47-.17-.86-.39-.69-1s.61-.67,1.16-.5a25.63,25.63,0,0,1,7.5,3.33c2.59,1.84,3,3.66,1.64,6.49C114.2,149.88,113.7,150.66,113.25,151.45Z"/><path class="cls-5" d="M86,150.06c.63-1.26,1.26-2.52,1.87-3.78.16-.31.53-.67-.17-.87-.42-.12-.09-.4,0-.58.48-1,1-2,1.46-3.06.08-.18.33-.49.14-.55-1.12-.35-.23-.88-.07-1.2.55-1.13,1.19-2.21,1.9-3.49l2.23,4.19c0,.07,0,.24,0,.25-1.19.52-.09,1.06,0,1.52a15.6,15.6,0,0,0,1,2.07c.17.36.63.78-.21,1-.4.1,0,.4,0,.56.64,1.32,1.3,2.63,2,3.94A21.58,21.58,0,0,1,86,150.06Z"/><path class="cls-6" d="M104.68,175.21c.72-1.44,1.35-2.73,2-4,.15-.3.38-.6-.17-.75s-.17-.43-.08-.62c.48-1,1-2,1.47-3.06.07-.17.36-.45.1-.55-1-.35-.24-.82-.07-1.16.57-1.14,1.21-2.26,1.9-3.53l2.18,4.11c.37.69-.45.35-.54.65.59,1.19,1.2,2.39,1.78,3.6.08.16.43.45,0,.54-.69.14-.44.48-.25.84l2,3.94A30.15,30.15,0,0,1,104.68,175.21Z"/><path class="cls-7" d="M105.52,159.37c.58.07,1.11-.3,1.7-.16.2.41-.15.62-.32.88a35.21,35.21,0,0,0-4.37,7.72,8.71,8.71,0,0,0-.56,4.74,5.45,5.45,0,0,0,2.76,3.71,18.56,18.56,0,0,0,7.77,2.25l1.64.17c.49,0,.82.26.79.81a.7.7,0,0,1-.79.71c-4.08-.2-8.06-.84-11.38-3.45-2.44-1.92-2.9-4.58-2.27-7.47C101.29,165.54,103.35,162.43,105.52,159.37Z"/><path class="cls-7" d="M92.79,159.36a6.87,6.87,0,0,0,2.26-.15c0,.36-.29.51-.51.72a45,45,0,0,0-5.79,6.38c-3,4.36-2.49,7,.61,10.86a14.72,14.72,0,0,0,2.31,2.22c.36.29.64.62.3,1.09a.77.77,0,0,1-1.2.12c-4.22-3.26-7.59-8.27-4-14.2A31.23,31.23,0,0,1,92.79,159.36Z"/><path class="cls-7" d="M102.19,151.47h-.36c.73-.82,1.61-1.49,2.28-2.37A2.92,2.92,0,0,0,104,145a9.55,9.55,0,0,0-3.24-2.2A27.87,27.87,0,0,0,96,141.15c-.36-.09-.71-.21-1-.32s-.66-.39-.55-.83a.77.77,0,0,1,1-.65c3.45.79,6.83,1.78,9.48,4.3,2.15,2,2.21,4.5.28,6.76l-.88,1.05a.36.36,0,0,1-.37.17C103.33,151.29,102.74,151.53,102.19,151.47Z"/><rect class="cls-8" x="85.32" y="151.44" width="38.51" height="8.24"/><path class="cls-1" d="M87.27,153.47h-1v-.85h2.88v.85h-1v5.08h-.93Z"/><path class="cls-1" d="M89.62,152.62H91a1.44,1.44,0,0,1,1,.33,1.39,1.39,0,0,1,.34,1v.37a1.13,1.13,0,0,1-.61,1.17h0a.73.73,0,0,1,.47.42,2,2,0,0,1,.14.84v1c0,.17,0,.31,0,.41a.85.85,0,0,0,.09.31h-1a1.08,1.08,0,0,1-.07-.27,4.32,4.32,0,0,1,0-.46v-1.08a.92.92,0,0,0-.13-.57.55.55,0,0,0-.45-.16h-.32v2.54h-.94Zm1.27,2.54a.57.57,0,0,0,.42-.14.67.67,0,0,0,.14-.49v-.45a.74.74,0,0,0-.11-.47.46.46,0,0,0-.36-.14h-.42v1.69Z"/><path class="cls-1" d="M93.76,152.62H95l1,5.93h-.94l-.17-1.18v0h-1l-.17,1.16h-.87Zm1,4-.41-2.93h0l-.4,2.93Z"/><path class="cls-1" d="M96.43,152.62h.94v5.93h-.94Z"/><path class="cls-1" d="M98.06,152.62H99v5.08h1.54v.85H98.06Z"/><path class="cls-1" d="M101,152.62h1.4a1.19,1.19,0,0,1,1.38,1.36v.24a1.64,1.64,0,0,1-.15.75.82.82,0,0,1-.45.41v0c.46.16.7.57.7,1.24v.5a1.42,1.42,0,0,1-.36,1.05,1.45,1.45,0,0,1-1.06.36H101Zm1.29,2.41a.53.53,0,0,0,.42-.14.71.71,0,0,0,.14-.48v-.33a.81.81,0,0,0-.11-.47.46.46,0,0,0-.36-.14h-.45V155Zm.17,2.67a.46.46,0,0,0,.37-.13.74.74,0,0,0,.11-.45v-.52a.8.8,0,0,0-.14-.56.56.56,0,0,0-.46-.16h-.41v1.82Z"/><path class="cls-1" d="M104.4,152.62h.93v5.08h1.53v.85H104.4Z"/><path class="cls-1" d="M108.07,152.62h1.26l1,5.93h-.94l-.17-1.18v0h-1.06l-.16,1.16h-.87Zm1,4-.41-2.93h0l-.41,2.93Z"/><path class="cls-1" d="M110.59,157.72l1.73-4.25h-1.64v-.85h2.64v.83l-1.73,4.25h1.73v.85h-2.73Z"/><path class="cls-1" d="M113.84,152.62h2.55v.85h-1.61V155h1.28v.85h-1.28v1.82h1.61v.85h-2.55Z"/><path class="cls-1" d="M116.92,152.62h1.38a1.19,1.19,0,0,1,1.38,1.36v.37a1.12,1.12,0,0,1-.61,1.17h0a.72.72,0,0,1,.48.42,2.16,2.16,0,0,1,.14.84v1c0,.17,0,.31,0,.41a1.09,1.09,0,0,0,.08.31h-1a1.68,1.68,0,0,1-.06-.27,2.64,2.64,0,0,1,0-.46v-1.08a1,1,0,0,0-.13-.57.56.56,0,0,0-.46-.16h-.32v2.54h-.93Zm1.27,2.54a.57.57,0,0,0,.42-.14.72.72,0,0,0,.14-.49v-.45a.81.81,0,0,0-.11-.47.46.46,0,0,0-.36-.14h-.43v1.69Z"/><path class="cls-1" d="M120.52,158.25a1.62,1.62,0,0,1-.35-1.11v-.33h.88v.4c0,.39.17.58.49.58a.46.46,0,0,0,.36-.14.72.72,0,0,0,.12-.46,1.29,1.29,0,0,0-.17-.65,2.84,2.84,0,0,0-.63-.68,3.85,3.85,0,0,1-.8-.92,1.94,1.94,0,0,1-.23-.93,1.54,1.54,0,0,1,.36-1.09,1.31,1.31,0,0,1,1-.38,1.26,1.26,0,0,1,1,.38,1.62,1.62,0,0,1,.35,1.11v.24h-.89V154a.76.76,0,0,0-.11-.45.45.45,0,0,0-.35-.14c-.31,0-.47.19-.47.57a1.08,1.08,0,0,0,.18.6,3,3,0,0,0,.63.68,3.44,3.44,0,0,1,.8.92,2,2,0,0,1,.22,1,1.6,1.6,0,0,1-.36,1.12,1.35,1.35,0,0,1-1,.39A1.3,1.3,0,0,1,120.52,158.25Z"/></g></g></svg>